#define n_0_width 16
#define n_0_height 16
static unsigned char n_0_bits[] = {
   0xc0, 0x01, 0xe0, 0x03, 0xf0, 0x07, 0xf0, 0x07, 0xf8, 0x0f, 0x00, 0x00,
   0x18, 0x08, 0x38, 0x08, 0x78, 0x08, 0x68, 0x08, 0xc8, 0x08, 0xc8, 0x09,
   0x88, 0x0b, 0x08, 0x0b, 0x08, 0x0e, 0x08, 0x0c };
