#define n_45_width 16
#define n_45_height 16
static unsigned char n_45_bits[] = {
   0x00, 0x1f, 0xc0, 0x1f, 0x80, 0x3f, 0x20, 0x3f, 0x70, 0x3c, 0x70, 0x30,
   0x68, 0x20, 0x68, 0x10, 0x44, 0x18, 0x64, 0x08, 0xc2, 0x04, 0xc3, 0x04,
   0xc0, 0x02, 0xc0, 0x02, 0x80, 0x01, 0x80, 0x00 };
