#define n_90_width 16
#define n_90_height 16
static unsigned char n_90_bits[] = {
   0x00, 0x00, 0x00, 0x00, 0x00, 0x00, 0xff, 0x05, 0xc0, 0x1d, 0xe0, 0x3c,
   0x78, 0x7c, 0x1c, 0xfc, 0x0e, 0x7c, 0x07, 0x3c, 0x01, 0x1c, 0xff, 0x05,
   0x00, 0x00, 0x00, 0x00, 0x00, 0x00, 0x00, 0x00 };
