#define arrow_right_width 30
#define arrow_right_height 40
static unsigned char arrow_right_bits[] = {
   0xf8, 0xff, 0xff, 0x07, 0x06, 0x00, 0x00, 0x08, 0x01, 0x00, 0x00, 0x10,
   0x01, 0x00, 0x00, 0x30, 0x01, 0x00, 0x00, 0x30, 0x01, 0x00, 0x00, 0x30,
   0x01, 0x00, 0x00, 0x30, 0x01, 0x00, 0x0c, 0x30, 0x01, 0x00, 0x3c, 0x30,
   0x01, 0x00, 0x3c, 0x30, 0x01, 0xf0, 0xff, 0x30, 0x01, 0xfc, 0xff, 0x33,
   0x01, 0x0c, 0xfe, 0x30, 0x01, 0x06, 0x1e, 0x30, 0x01, 0x02, 0x02, 0x30,
   0x01, 0x02, 0x00, 0x30, 0x01, 0x03, 0x00, 0x30, 0x01, 0x03, 0x00, 0x30,
   0x01, 0x03, 0x00, 0x30, 0x01, 0x03, 0x00, 0x30, 0x01, 0x03, 0x00, 0x30,
   0x01, 0x03, 0x00, 0x30, 0x01, 0x03, 0x00, 0x30, 0x01, 0x03, 0x00, 0x30,
   0x01, 0x03, 0x00, 0x30, 0x01, 0x03, 0x00, 0x38, 0x02, 0x02, 0x00, 0x1c,
   0x04, 0x00, 0x00, 0x0e, 0x08, 0x00, 0x00, 0x07, 0x10, 0x00, 0x80, 0x03,
   0x20, 0x00, 0xc0, 0x01, 0x40, 0x00, 0xe0, 0x00, 0x80, 0x00, 0x70, 0x00,
   0x00, 0x01, 0x38, 0x00, 0x00, 0x02, 0x1c, 0x00, 0x00, 0x04, 0x0e, 0x00,
   0x00, 0x08, 0x07, 0x00, 0x00, 0x90, 0x03, 0x00, 0x00, 0xe0, 0x01, 0x00,
   0x00, 0xc0, 0x00, 0x00 };
