#define arrow_straight_width 30
#define arrow_straight_height 40
static unsigned char arrow_straight_bits[] = {
   0xf8, 0xff, 0xff, 0x07, 0x06, 0x00, 0x00, 0x08, 0x01, 0x00, 0x00, 0x10,
   0x01, 0x00, 0x00, 0x30, 0x01, 0x00, 0x00, 0x30, 0x01, 0x60, 0x00, 0x30,
   0x01, 0xe0, 0x00, 0x30, 0x01, 0xf0, 0x00, 0x30, 0x01, 0xf0, 0x01, 0x30,
   0x01, 0xf0, 0x01, 0x30, 0x01, 0xf8, 0x03, 0x30, 0x01, 0xfc, 0x03, 0x30,
   0x01, 0xfc, 0x07, 0x30, 0x01, 0x60, 0x00, 0x30, 0x01, 0x60, 0x00, 0x30,
   0x01, 0x60, 0x00, 0x30, 0x01, 0x60, 0x00, 0x30, 0x01, 0x60, 0x00, 0x30,
   0x01, 0x60, 0x00, 0x30, 0x01, 0x60, 0x00, 0x30, 0x01, 0x60, 0x00, 0x30,
   0x01, 0x60, 0x00, 0x30, 0x01, 0x60, 0x00, 0x30, 0x01, 0x60, 0x00, 0x30,
   0x01, 0x60, 0x00, 0x30, 0x01, 0x60, 0x00, 0x38, 0x06, 0x60, 0x00, 0x1c,
   0x08, 0x60, 0x00, 0x0e, 0x08, 0x60, 0x00, 0x07, 0x10, 0x60, 0x80, 0x03,
   0x20, 0x60, 0xc0, 0x01, 0x40, 0x00, 0xe0, 0x00, 0x80, 0x00, 0x70, 0x00,
   0x00, 0x01, 0x38, 0x00, 0x00, 0x02, 0x1c, 0x00, 0x00, 0x04, 0x0e, 0x00,
   0x00, 0x08, 0x07, 0x00, 0x00, 0x90, 0x03, 0x00, 0x00, 0xe0, 0x01, 0x00,
   0x00, 0xc0, 0x00, 0x00 };
